<svg width="28" height="29" viewBox="0 0 28 29" fill="none" xmlns="http://www.w3.org/2000/svg">
<path d="M14 8.63786C14 7.40018 13.5083 6.2132 12.6332 5.33803C11.758 4.46286 10.571 3.97119 9.33333 3.97119H2.33333V21.4712H10.5C11.4283 21.4712 12.3185 21.8399 12.9749 22.4963C13.6312 23.1527 14 24.0429 14 24.9712M14 8.63786V24.9712M14 8.63786C14 7.40018 14.4917 6.2132 15.3668 5.33803C16.242 4.46286 17.429 3.97119 18.6667 3.97119H25.6667V21.4712H17.5C16.5717 21.4712 15.6815 21.8399 15.0251 22.4963C14.3687 23.1527 14 24.0429 14 24.9712" stroke="#808080" stroke-linecap="round" stroke-linejoin="round"/>
</svg>
