<svg width="316" height="65" viewBox="0 0 316 65" fill="none" xmlns="http://www.w3.org/2000/svg">
<rect x="0.11853" y="31.3401" width="105" height="1" rx="0.5" fill="#BDBDBD"/>
<rect x="210.119" y="31.3401" width="105" height="1" rx="0.5" fill="#BDBDBD"/>
<path d="M156.97 64.171C174.606 64.171 188.951 49.8262 188.951 32.1925C188.951 14.556 174.606 0.211243 156.97 0.211243C139.333 0.211243 124.989 14.556 124.989 32.1925C124.991 49.8262 139.336 64.171 156.97 64.171ZM156.97 0.790283C174.284 0.790283 188.372 14.8784 188.372 32.1925C188.372 49.5067 174.287 63.5919 156.973 63.5919C139.659 63.5919 125.57 49.5067 125.57 32.1925C125.57 14.8784 139.656 0.790283 156.97 0.790283Z" fill="#303030"/>
<path d="M143.784 43.7874L158.979 45.1365C158.992 43.911 159.076 39.6638 159.684 37.7308C160.375 35.5244 166.653 36.3265 168.249 36.5684C169.143 32.0714 170.661 29.2233 170.726 29.1023C170.805 28.955 170.989 28.8998 171.137 28.9787C171.284 29.0576 171.339 29.2417 171.26 29.389C171.245 29.4179 169.656 32.4054 168.788 36.9682C168.757 37.1286 168.602 37.2364 168.441 37.2101C165.514 36.7262 160.707 36.4869 160.262 37.9097C159.592 40.0451 159.584 45.4126 159.584 45.4652C159.584 45.5494 159.547 45.6309 159.486 45.6888C159.431 45.7387 159.358 45.7677 159.281 45.7677C159.273 45.7677 159.263 45.7677 159.255 45.7677L143.734 44.3896C143.568 44.3738 143.444 44.2266 143.46 44.0609C143.468 43.8952 143.618 43.7742 143.784 43.7874Z" fill="#303030"/>
<path d="M140.857 36.3423C141.083 35.9557 141.451 35.7164 141.953 35.6296C143.534 35.3561 152.941 36.3817 154.716 36.579C154.829 35.982 155.05 34.4567 154.663 33.1023C154.261 31.6927 153.422 28.7604 155.815 28.0162C156.936 27.6664 158.187 27.8295 159.634 28.0162C160.807 28.1687 162.137 28.3397 163.629 28.2634C164.404 28.2239 165.051 28.195 165.638 28.1687C167.547 28.0846 168.812 28.0293 171.742 27.6848C172.333 27.506 172.975 27.6296 173.459 28.0214C173.953 28.4212 174.214 29.0339 174.153 29.6677L172.268 49.8676C172.257 49.9965 172.165 50.1016 172.041 50.1332L171.968 50.1516V50.6776C171.968 50.788 171.894 50.8853 171.786 50.9143L170.285 51.3061C170.13 51.3456 169.98 51.2299 169.98 51.0694V50.6513L163.445 52.2949V52.8393C163.445 52.9498 163.373 53.0471 163.266 53.0813L161.196 53.7203C161.157 53.7335 161.114 53.7361 161.075 53.7282L159.51 53.4363C159.392 53.4153 159.305 53.3101 159.305 53.1891V52.6657L143.4 50.909V51.193C143.4 51.3166 143.292 51.4139 143.168 51.4008L141.825 51.243C141.719 51.2299 141.64 51.1404 141.64 51.0352V50.6986C141.527 50.6539 141.446 50.5487 141.446 50.4199V39.7295L140.833 38.5645C140.825 38.5514 140.82 38.5382 140.815 38.5251C140.791 38.4725 140.354 37.2022 140.857 36.3423ZM141.375 38.3068L142.011 39.5191C142.035 39.5638 142.045 39.6112 142.045 39.6612V50.1569L160.836 52.2318L161.178 39.8479C161.183 39.6796 161.322 39.5454 161.488 39.5533C161.656 39.5586 161.788 39.698 161.782 39.8636L161.443 52.1766L171.684 49.602L173.551 29.6151C173.59 29.1865 173.414 28.7683 173.078 28.4974C172.741 28.2266 172.312 28.1451 171.894 28.2765C171.876 28.2818 171.857 28.2871 171.836 28.2897C168.865 28.6395 167.589 28.6947 165.661 28.7815C165.078 28.8078 164.431 28.8367 163.658 28.8761C162.111 28.955 160.752 28.7815 159.552 28.6263C158.174 28.4475 156.986 28.295 155.992 28.6053C154.385 29.1049 154.682 30.9879 155.242 32.9472C155.776 34.8196 155.266 36.9077 155.245 36.9945C155.208 37.1418 155.071 37.2391 154.916 37.2207C151.034 36.7815 143.352 36.0083 142.051 36.2345C141.73 36.2897 141.509 36.4291 141.375 36.6552C141.086 37.147 141.272 37.9938 141.375 38.3068Z" fill="#303030"/>
<path d="M145.614 35.0905C145.783 35.0905 145.917 34.9537 145.917 34.788V22.0228C145.917 21.8545 145.78 21.7203 145.614 21.7203C145.446 21.7203 145.312 21.8571 145.312 22.0228V34.788C145.312 34.9564 145.449 35.0905 145.614 35.0905Z" fill="#303030"/>
<path d="M140.081 21.3732H151.15C151.247 21.3732 151.339 21.3259 151.397 21.2443C151.455 21.1654 151.468 21.0629 151.437 20.9682L147.892 10.8512C147.85 10.7302 147.734 10.6487 147.605 10.6487H143.626C143.497 10.6487 143.384 10.7302 143.339 10.8512L139.794 20.9682C139.763 21.0602 139.776 21.1628 139.834 21.2443C139.892 21.3259 139.984 21.3732 140.081 21.3732Z" fill="#303030"/>
<path d="M144.244 23.9899C144.412 23.9899 144.547 23.8531 144.547 23.6875V22.0228C144.547 21.8545 144.41 21.7203 144.244 21.7203C144.076 21.7203 143.942 21.8571 143.942 22.0228V23.6875C143.942 23.8531 144.076 23.9899 144.244 23.9899Z" fill="#303030"/>
<path d="M148.081 23.5691C148.933 23.5691 149.627 22.8748 149.627 22.0228C149.627 21.8545 149.491 21.7203 149.325 21.7203C149.157 21.7203 149.022 21.8571 149.022 22.0228C149.022 22.5408 148.599 22.9643 148.081 22.9643C147.563 22.9643 147.139 22.5408 147.139 22.0228C147.139 21.8545 147.003 21.7203 146.837 21.7203C146.669 21.7203 146.535 21.8571 146.535 22.0228C146.535 22.8748 147.229 23.5691 148.081 23.5691Z" fill="#303030"/>
</svg>
