<svg width="17" height="21" viewBox="0 0 17 21" fill="none" xmlns="http://www.w3.org/2000/svg">
<path d="M1.68562 20.1194H1.68538C1.60654 20.1195 1.55449 20.0852 1.52911 20.0509C1.48201 19.9872 1.43842 19.8881 1.43842 19.7334V2.56727C1.43842 2.13632 1.9031 1.61952 2.57022 1.61952H14.8733C15.5041 1.61952 15.9384 2.10295 15.9384 2.56727V19.7334C15.9384 19.9729 15.8699 20.0574 15.851 20.0771C15.8293 20.0999 15.7942 20.1195 15.735 20.1195C15.6716 20.1195 15.5491 20.0949 15.3542 19.938L15.3535 19.9374L9.86827 15.5311C9.86805 15.5309 9.86783 15.5307 9.86761 15.5305C9.86758 15.5305 9.86755 15.5305 9.86752 15.5305C9.54254 15.2691 9.12497 15.1494 8.72982 15.1494C8.3353 15.1494 7.91704 15.2687 7.59211 15.53C7.59181 15.5303 7.59151 15.5305 7.5912 15.5307L2.0885 19.9374L2.08678 19.9388C1.90525 20.085 1.76171 20.1194 1.68562 20.1194Z" fill="#FFD600" stroke="#FFD600" stroke-width="1.5"/>
</svg>
