<svg width="16" height="20" viewBox="0 0 16 20" fill="none" xmlns="http://www.w3.org/2000/svg">
<path d="M0.9972 19.2499H0.996966C0.918123 19.2499 0.866079 19.2157 0.84069 19.1814C0.793597 19.1176 0.75 19.0186 0.75 18.8638V1.69774C0.75 1.2668 1.21468 0.75 1.8818 0.75H14.1849C14.8157 0.75 15.25 1.23343 15.25 1.69774V18.8639C15.25 19.1034 15.1815 19.1879 15.1626 19.2076C15.1408 19.2303 15.1058 19.25 15.0466 19.25C14.9832 19.25 14.8607 19.2254 14.6658 19.0684L14.6651 19.0679L9.17986 14.6616C9.17964 14.6614 9.17942 14.6612 9.17919 14.661C9.17916 14.661 9.17913 14.661 9.1791 14.6609C8.85412 14.3995 8.43655 14.2799 8.0414 14.2799C7.64689 14.2799 7.22863 14.3991 6.90369 14.6605C6.90339 14.6607 6.90309 14.661 6.90279 14.6612L1.40009 19.0679L1.39836 19.0693C1.21683 19.2155 1.0733 19.2499 0.9972 19.2499Z" stroke="#242424" stroke-width="1.5"/>
</svg>
