<svg width="19" height="22" viewBox="0 0 19 22" fill="none" xmlns="http://www.w3.org/2000/svg">
<path d="M1.6639 21.4999H1.66406C1.83872 21.4999 2.06636 21.4249 2.30924 21.2293L2.31039 21.2283L8.3641 16.3804C8.36429 16.3803 8.36448 16.3801 8.36468 16.38C8.65498 16.1464 9.03965 16.0328 9.41268 16.0328C9.78625 16.0328 10.1704 16.1467 10.461 16.3807L10.4606 16.3804L10.1475 16.7702L10.4611 16.3808L16.4952 21.2281L16.4957 21.2284C16.7479 21.4315 16.9524 21.5 17.1184 21.5C17.2625 21.5 17.3891 21.4488 17.4808 21.3531C17.5705 21.2594 17.6671 21.08 17.6671 20.7503V1.86752C17.6671 1.15919 17.0253 0.5 16.1705 0.5H2.63712C1.75817 0.5 1.06714 1.18144 1.06714 1.86752V20.7502C1.06714 20.9868 1.13557 21.1641 1.23042 21.2925L1.6639 21.4999ZM1.6639 21.4999C1.48024 21.5 1.32331 21.4182 1.23047 21.2926L1.6639 21.4999Z" stroke="#999999"/>
</svg>
