<svg width="28" height="28" viewBox="0 0 28 28" fill="none" xmlns="http://www.w3.org/2000/svg">
<path d="M4.66667 2.33337H23.3333V24.5H4.66667V2.33337Z" stroke="#909090" stroke-linejoin="round"/>
<path d="M14 2.33337V24.5" stroke="#909090" stroke-linejoin="round"/>
<path d="M16.9167 15.1667C17.2388 15.1667 17.5 14.9055 17.5 14.5833C17.5 14.2612 17.2388 14 16.9167 14C16.5945 14 16.3333 14.2612 16.3333 14.5833C16.3333 14.9055 16.5945 15.1667 16.9167 15.1667Z" stroke="#909090"/>
<path d="M11.0833 15.1667C11.4055 15.1667 11.6667 14.9055 11.6667 14.5833C11.6667 14.2612 11.4055 14 11.0833 14C10.7612 14 10.5 14.2612 10.5 14.5833C10.5 14.9055 10.7612 15.1667 11.0833 15.1667Z" stroke="#909090"/>
<path d="M21 25.6667V24.5M8.16667 25.6667V24.5" stroke="#909090" stroke-linecap="round" stroke-linejoin="round"/>
</svg>
