<svg width="43" height="42" viewBox="0 0 43 42" fill="none" xmlns="http://www.w3.org/2000/svg">
<g clip-path="url(#clip0_467_238)">
<path d="M33.9418 3.12071H14.6744V11.1107H38.0569V7.23413C38.0569 4.96577 36.2108 3.12071 33.9418 3.12071Z" fill="#CED9F9"/>
<path d="M23.0352 12.3403H0.5V4.92636C0.5 2.20972 2.71068 0 5.42828 0H12.6336C13.3497 0 14.0396 0.150925 14.6664 0.434509C15.5418 0.828964 16.2939 1.47913 16.8213 2.3286L23.0352 12.3403Z" fill="#808080"/>
<path d="M42.5 14.0001V37.8815C42.5 40.1527 40.6511 42 38.3789 42H4.62111C2.34891 42 0.5 40.1527 0.5 37.8815V9.8806H38.3789C40.6511 9.8806 42.5 11.7285 42.5 14.0001Z" fill="#999999"/>
<path d="M42.5 14.0001V37.8815C42.5 40.1527 40.6511 42 38.3789 42H21.5V9.8806H38.3789C40.6511 9.8806 42.5 11.7285 42.5 14.0001Z" fill="#B3B3B3"/>
<path d="M32.5479 25.9398C32.5479 32.0322 27.5918 36.9887 21.5 36.9887C15.4082 36.9887 10.452 32.0322 10.452 25.9398C10.452 19.8484 15.4082 14.8919 21.5 14.8919C27.5918 14.8919 32.5479 19.8484 32.5479 25.9398Z" fill="#E7ECFC"/>
<path d="M32.5479 25.9398C32.5479 32.0322 27.5918 36.9887 21.5 36.9887V14.8919C27.5918 14.8919 32.5479 19.8484 32.5479 25.9398Z" fill="#CED9F9"/>
<path d="M25.061 26.0754C24.8306 26.2705 24.5483 26.3657 24.2685 26.3657C23.9183 26.3657 23.5703 26.2173 23.3268 25.9283L22.7304 25.2214V29.8494C22.7304 30.5288 22.1793 31.0799 21.5 31.0799C20.8207 31.0799 20.2695 30.5288 20.2695 29.8494V25.2214L19.6732 25.9283C19.2342 26.4477 18.4584 26.514 17.939 26.0754C17.4199 25.6373 17.3532 24.8612 17.7913 24.3418L20.2269 21.4544C20.5444 21.0788 21.0078 20.8629 21.5 20.8629C21.9922 20.8629 22.4555 21.0788 22.7731 21.4544L25.2087 24.3418C25.6467 24.8612 25.5801 25.6373 25.061 26.0754Z" fill="#808080"/>
<path d="M25.061 26.0754C24.8306 26.2705 24.5483 26.3657 24.2686 26.3657C23.9183 26.3657 23.5703 26.2173 23.3268 25.9283L22.7305 25.2214V29.8494C22.7305 30.5288 22.1793 31.0799 21.5 31.0799V20.8629C21.9922 20.8629 22.4555 21.0788 22.7731 21.4544L25.2087 24.3418C25.6467 24.8612 25.5801 25.6373 25.061 26.0754Z" fill="#B3B3B3"/>
</g>
<defs>
<clipPath id="clip0_467_238">
<rect width="42" height="42" fill="white" transform="translate(0.5)"/>
</clipPath>
</defs>
</svg>
